<svg width="56" height="71" viewBox="0 0 56 71" fill="none" xmlns="http://www.w3.org/2000/svg">
<g clip-path="url(#clip0_27_101)">
<path fill-rule="evenodd" clip-rule="evenodd" d="M40.645 66.539C40.6451 66.8895 40.5762 67.2367 40.4421 67.5605C40.308 67.8844 40.1114 68.1787 39.8636 68.4266C39.6157 68.6744 39.3214 68.871 38.9975 69.0051C38.6737 69.1392 38.3265 69.2081 37.976 69.208H4.075C3.7243 69.2083 3.37698 69.1394 3.05292 69.0053C2.72887 68.8712 2.43442 68.6745 2.18644 68.4266C1.93845 68.1786 1.74179 67.8841 1.60771 67.5601C1.47362 67.236 1.40474 66.8887 1.405 66.538V4.075C1.405 3.36687 1.6863 2.68775 2.18702 2.18702C2.68775 1.6863 3.36687 1.405 4.075 1.405H37.977C38.3277 1.40487 38.6749 1.47384 38.9989 1.60797C39.3229 1.74211 39.6173 1.93877 39.8653 2.18673C40.1132 2.43469 40.3099 2.72908 40.444 3.05308C40.5782 3.37708 40.6471 3.72433 40.647 4.075V14.36H42.051V4.073C42.0499 2.99293 41.6203 1.95741 40.8565 1.19377C40.0927 0.430136 39.0571 0.000794238 37.977 0H4.074C2.99392 0.000794238 1.9583 0.430136 1.19448 1.19377C0.430655 1.95741 0.00105938 2.99293 0 4.073L0 66.538C0.000529716 67.6184 0.429892 68.6545 1.19377 69.4185C1.95765 70.1826 2.99358 70.6122 4.074 70.613H37.976C39.0564 70.6125 40.0925 70.1831 40.8565 69.4192C41.6206 68.6553 42.0502 67.6194 42.051 66.539V56.255H40.645V66.539Z" fill="#FF0032"/>
<path fill-rule="evenodd" clip-rule="evenodd" d="M7.22498 13.867L13.256 7.83701L14.248 8.83001L8.21898 14.861L7.22498 13.867ZM8.89598 22.214L21.166 9.94501L22.159 10.938L9.88998 23.208L8.89598 22.214ZM21.033 55.707C21.3835 55.7069 21.7307 55.7759 22.0546 55.91C22.3785 56.0442 22.6727 56.2409 22.9205 56.4889C23.1683 56.7368 23.3648 57.0313 23.4987 57.3552C23.6326 57.6792 23.7014 58.0264 23.701 58.377C23.7014 58.7276 23.6326 59.0748 23.4987 59.3988C23.3648 59.7228 23.1683 60.0172 22.9205 60.2652C22.6727 60.5131 22.3785 60.7098 22.0546 60.844C21.7307 60.9782 21.3835 61.0471 21.033 61.047C20.325 61.047 19.646 60.7658 19.1454 60.2651C18.6447 59.7645 18.3635 59.0855 18.3635 58.3775C18.3635 57.6695 18.6447 56.9905 19.1454 56.4899C19.646 55.9893 20.325 55.707 21.033 55.707ZM21.033 62.451C22.1131 62.4499 23.1488 62.0204 23.9126 61.2566C24.6764 60.4928 25.1059 59.4572 25.107 58.377C25.1064 57.2966 24.6771 56.2606 23.9132 55.4965C23.1493 54.7324 22.1134 54.3028 21.033 54.302C19.9523 54.3025 18.916 54.732 18.1517 55.4961C17.3875 56.2601 16.9578 57.2963 16.957 58.377C16.958 59.4575 17.3879 60.4934 18.1521 61.2573C18.9163 62.0211 19.9525 62.4505 21.033 62.451Z" fill="#FF0032"/>
<path fill-rule="evenodd" clip-rule="evenodd" d="M30.754 51H50.536V22.745H30.754V51ZM29.35 52.405H51.941V21.34H29.35V52.405Z" fill="#FF0032"/>
<path fill-rule="evenodd" clip-rule="evenodd" d="M33.508 18.827H53.992V47.783H55.397V17.42H33.508V18.827Z" fill="#FF0032"/>
<path fill-rule="evenodd" clip-rule="evenodd" d="M35.152 32.173H38.454V28.873H35.152V32.173ZM33.747 33.578H39.859V27.468H33.747V33.578ZM34.295 37.962H47.628V36.557H34.295V37.962ZM34.295 42.205H42.922V40.8H34.295V42.205ZM34.295 46.603H45.59V45.198H34.295V46.603Z" fill="#FF0032"/>
</g>
<defs>
<clipPath id="clip0_27_101">
<rect width="56" height="71" fill="white"/>
</clipPath>
</defs>
</svg>
